<svg xmlns="http://www.w3.org/2000/svg" xmlns:xlink="http://www.w3.org/1999/xlink" viewBox="0 0 650 650"><defs><style>.cls-1{fill:url(#Безымянный_градиент_263);}.cls-2{fill:url(#Безымянный_градиент_170);}.cls-3{fill:#fff;}.cls-4{fill:#e9ecf5;}.cls-24,.cls-25,.cls-26,.cls-34,.cls-35,.cls-36,.cls-37,.cls-38,.cls-39,.cls-40,.cls-41,.cls-42,.cls-43,.cls-44,.cls-45,.cls-46,.cls-47,.cls-5,.cls-6{fill:none;stroke-linecap:round;stroke-miterlimit:10;}.cls-5,.cls-6{stroke-width:9.91px;}.cls-5{stroke:url(#Безымянный_градиент_263-2);}.cls-6{stroke:url(#Безымянный_градиент_263-3);}.cls-7{fill:url(#Безымянный_градиент_3);}.cls-8{fill:url(#Безымянный_градиент_123);}.cls-9{fill:url(#Безымянный_градиент_123-2);}.cls-10{fill:url(#Безымянный_градиент_123-3);}.cls-11{fill:#d5527e;}.cls-12{fill:url(#Безымянный_градиент_123-4);}.cls-13{fill:#201f4f;}.cls-14{fill:url(#Безымянный_градиент_123-5);}.cls-15{fill:url(#Безымянный_градиент_123-6);}.cls-16{fill:url(#Безымянный_градиент_123-7);}.cls-17{fill:url(#Безымянный_градиент_123-8);}.cls-18{fill:url(#Безымянный_градиент_123-9);}.cls-19{fill:url(#Безымянный_градиент_171);}.cls-20{fill:url(#Безымянный_градиент_123-10);}.cls-21{fill:url(#Безымянный_градиент_123-11);}.cls-22{fill:url(#Безымянный_градиент_123-12);}.cls-23{fill:url(#Безымянный_градиент_139);}.cls-24,.cls-25,.cls-26,.cls-34,.cls-35,.cls-36,.cls-37,.cls-38,.cls-39,.cls-40,.cls-41,.cls-42,.cls-43,.cls-44,.cls-45,.cls-46,.cls-47{stroke-width:5.37px;}.cls-24{stroke:url(#Безымянный_градиент_139-2);}.cls-25{stroke:url(#Безымянный_градиент_139-3);}.cls-26{stroke:url(#Безымянный_градиент_139-4);}.cls-27{fill:url(#Безымянный_градиент_29);}.cls-28{fill:url(#Безымянный_градиент_29-2);}.cls-29{fill:url(#Безымянный_градиент_48);}.cls-30{fill:url(#Безымянный_градиент_123-13);}.cls-31{fill:url(#Безымянный_градиент_140);}.cls-32{fill:url(#Безымянный_градиент_48-2);}.cls-33{fill:url(#Безымянный_градиент_157);}.cls-34{stroke:url(#Безымянный_градиент_139-5);}.cls-35{stroke:url(#Безымянный_градиент_139-6);}.cls-36{stroke:url(#Безымянный_градиент_139-7);}.cls-37{stroke:url(#Безымянный_градиент_139-8);}.cls-38{stroke:url(#Безымянный_градиент_139-9);}.cls-39{stroke:url(#Безымянный_градиент_139-10);}.cls-40{stroke:url(#Безымянный_градиент_139-11);}.cls-41{stroke:url(#Безымянный_градиент_139-12);}.cls-42{stroke:url(#Безымянный_градиент_39);}.cls-43{stroke:url(#Безымянный_градиент_39-2);}.cls-44{stroke:url(#Безымянный_градиент_39-3);}.cls-45{stroke:url(#Безымянный_градиент_139-13);}.cls-46{stroke:url(#Безымянный_градиент_38);}.cls-47{stroke:url(#Безымянный_градиент_37);}</style><linearGradient id="Безымянный_градиент_263" x1="77.21" y1="342.18" x2="624.21" y2="342.18" gradientUnits="userSpaceOnUse"><stop offset="0" stop-color="#f0f2f5"/><stop offset="0.99" stop-color="#f5f7f8"/></linearGradient><linearGradient id="Безымянный_градиент_170" x1="52.05" y1="236.26" x2="429.93" y2="236.26" gradientUnits="userSpaceOnUse"><stop offset="0.01" stop-color="#bbbfd9"/><stop offset="1" stop-color="#d6dbf8"/></linearGradient><linearGradient id="Безымянный_градиент_263-2" x1="300.8" y1="270.19" x2="405.52" y2="270.19" xlink:href="#Безымянный_градиент_263"/><linearGradient id="Безымянный_градиент_263-3" x1="300.8" y1="307.43" x2="405.52" y2="307.43" xlink:href="#Безымянный_градиент_263"/><linearGradient id="Безымянный_градиент_3" x1="103.57" y1="382.39" x2="181.91" y2="382.39" gradientUnits="userSpaceOnUse"><stop offset="0.09" stop-color="#d9d9d9"/><stop offset="0.12" stop-color="#d6d6d6"/><stop offset="0.7" stop-color="#aeaeae"/><stop offset="1" stop-color="#9f9f9f"/></linearGradient><linearGradient id="Безымянный_градиент_123" x1="149.35" y1="487.81" x2="127.43" y2="497.75" gradientUnits="userSpaceOnUse"><stop offset="0" stop-color="#753200"/><stop offset="1" stop-color="#a04400"/></linearGradient><linearGradient id="Безымянный_градиент_123-2" x1="109.99" y1="493.48" x2="166.66" y2="493.48" xlink:href="#Безымянный_градиент_123"/><linearGradient id="Безымянный_градиент_123-3" x1="-1250.26" y1="-475.3" x2="-1185.72" y2="-475.3" gradientTransform="matrix(0.64, 0.76, -0.76, 0.64, 796.61, 1468.72)" xlink:href="#Безымянный_градиент_123"/><linearGradient id="Безымянный_градиент_123-4" x1="-4897.78" y1="572.21" x2="-4900.61" y2="532.83" gradientTransform="matrix(-1, 0, 0, 1, -4346.12, 0)" xlink:href="#Безымянный_градиент_123"/><linearGradient id="Безымянный_градиент_123-5" x1="-4845.16" y1="530.93" x2="-4838.55" y2="574.09" gradientTransform="matrix(-1, 0, 0, 1, -4346.12, 0)" xlink:href="#Безымянный_градиент_123"/><linearGradient id="Безымянный_градиент_123-6" x1="-1648.94" y1="3674.41" x2="-1605.24" y2="3674.41" gradientTransform="matrix(-0.76, -0.65, 0.65, -0.76, -3087.42, 2098.63)" xlink:href="#Безымянный_градиент_123"/><linearGradient id="Безымянный_градиент_123-7" x1="-1643.68" y1="3661.85" x2="-1633.33" y2="3661.85" gradientTransform="matrix(-0.76, -0.65, 0.65, -0.76, -3087.42, 2098.63)" xlink:href="#Безымянный_градиент_123"/><linearGradient id="Безымянный_градиент_123-8" x1="-1639.24" y1="3659.14" x2="-1631.01" y2="3659.14" gradientTransform="matrix(-0.76, -0.65, 0.65, -0.76, -3087.42, 2098.63)" xlink:href="#Безымянный_градиент_123"/><linearGradient id="Безымянный_градиент_123-9" x1="-1634.53" y1="3663.13" x2="-1629.24" y2="3663.13" gradientTransform="matrix(-0.76, -0.65, 0.65, -0.76, -3087.42, 2098.63)" xlink:href="#Безымянный_градиент_123"/><linearGradient id="Безымянный_градиент_171" x1="533.15" y1="271.01" x2="541.92" y2="271.01" gradientUnits="userSpaceOnUse"><stop offset="0" stop-color="#d5527e"/><stop offset="1" stop-color="#ff6297"/></linearGradient><linearGradient id="Безымянный_градиент_123-10" x1="94.95" y1="310.53" x2="112.19" y2="310.53" xlink:href="#Безымянный_градиент_123"/><linearGradient id="Безымянный_градиент_123-11" x1="211.93" y1="222.25" x2="237.43" y2="222.25" xlink:href="#Безымянный_градиент_123"/><linearGradient id="Безымянный_градиент_123-12" x1="121.01" y1="188.18" x2="172.26" y2="188.18" xlink:href="#Безымянный_градиент_123"/><linearGradient id="Безымянный_градиент_139" x1="81.79" y1="151.29" x2="180.64" y2="151.29" gradientUnits="userSpaceOnUse"><stop offset="0" stop-color="#201f4f"/><stop offset="0.26" stop-color="#27275a"/><stop offset="0.72" stop-color="#393c76"/><stop offset="1" stop-color="#464b8b"/></linearGradient><linearGradient id="Безымянный_градиент_139-2" x1="551.67" y1="495.25" x2="598.62" y2="495.25" gradientTransform="translate(-156.53 -224.58) rotate(-9.77)" xlink:href="#Безымянный_градиент_139"/><linearGradient id="Безымянный_градиент_139-3" x1="558.7" y1="496.46" x2="605.65" y2="496.46" gradientTransform="translate(-156.53 -224.58) rotate(-9.77)" xlink:href="#Безымянный_градиент_139"/><linearGradient id="Безымянный_градиент_139-4" x1="543.42" y1="491.23" x2="590.36" y2="491.23" gradientTransform="translate(-156.53 -224.58) rotate(-9.77)" xlink:href="#Безымянный_градиент_139"/><linearGradient id="Безымянный_градиент_29" x1="-3469.79" y1="201.9" x2="-3458.45" y2="139.75" gradientTransform="matrix(-1, 0, 0, 1, -2952.56, 0)" gradientUnits="userSpaceOnUse"><stop offset="0.28" stop-color="#201f4f"/><stop offset="1" stop-color="#201f4f"/></linearGradient><linearGradient id="Безымянный_градиент_29-2" x1="-3512.45" y1="164.2" x2="-3445.98" y2="133.43" xlink:href="#Безымянный_градиент_29"/><linearGradient id="Безымянный_градиент_48" x1="-1291.26" y1="120.43" x2="-1314.54" y2="143.27" gradientTransform="translate(1815.68 341.57) rotate(12.28)" gradientUnits="userSpaceOnUse"><stop offset="0" stop-color="#a04400"/><stop offset="1" stop-color="#753200"/></linearGradient><linearGradient id="Безымянный_градиент_123-13" x1="-3434.7" y1="192.55" x2="-3489.59" y2="180.32" gradientTransform="matrix(-1, 0, 0, 1, -2952.56, 0)" xlink:href="#Безымянный_градиент_123"/><linearGradient id="Безымянный_градиент_140" x1="-3448.5" y1="151.06" x2="-3479.34" y2="165.72" gradientTransform="matrix(-1, 0, 0, 1, -2952.56, 0)" gradientUnits="userSpaceOnUse"><stop offset="0.1" stop-color="#753200"/><stop offset="0.48" stop-color="#8a3b00" stop-opacity="0.52"/><stop offset="0.82" stop-color="#9a4100" stop-opacity="0.14"/><stop offset="1" stop-color="#a04400" stop-opacity="0"/></linearGradient><linearGradient id="Безымянный_градиент_48-2" x1="-3485.08" y1="184.12" x2="-3457.68" y2="199.34" gradientTransform="matrix(-1, 0, 0, 1, -2952.56, 0)" xlink:href="#Безымянный_градиент_48"/><linearGradient id="Безымянный_градиент_157" x1="-1291.31" y1="104.17" x2="-1294.32" y2="107.12" gradientTransform="translate(1815.68 341.57) rotate(12.28)" gradientUnits="userSpaceOnUse"><stop offset="0" stop-color="#a96e46"/><stop offset="1" stop-color="#ffd0b9"/></linearGradient><linearGradient id="Безымянный_градиент_139-5" x1="-3509.55" y1="158.63" x2="-3462.61" y2="158.63" gradientTransform="matrix(-1, 0, 0, 1, -2952.56, 0)" xlink:href="#Безымянный_градиент_139"/><linearGradient id="Безымянный_градиент_139-6" x1="-3503.42" y1="165.75" x2="-3456.47" y2="165.75" gradientTransform="matrix(-1, 0, 0, 1, -2952.56, 0)" xlink:href="#Безымянный_градиент_139"/><linearGradient id="Безымянный_градиент_139-7" x1="-3517.1" y1="160.76" x2="-3470.15" y2="160.76" gradientTransform="matrix(-1, 0, 0, 1, -2952.56, 0)" xlink:href="#Безымянный_градиент_139"/><linearGradient id="Безымянный_градиент_139-8" x1="-3628.26" y1="318.71" x2="-3580.97" y2="318.71" gradientTransform="matrix(-1, 0.08, 0.08, 1, -3075.22, 142)" xlink:href="#Безымянный_градиент_139"/><linearGradient id="Безымянный_градиент_139-9" x1="-3505.32" y1="158.63" x2="-3458.94" y2="158.63" gradientTransform="matrix(-1, 0, 0, 1, -2952.56, 0)" xlink:href="#Безымянный_градиент_139"/><linearGradient id="Безымянный_градиент_139-10" x1="-3481.48" y1="140.94" x2="-3454.59" y2="140.94" gradientTransform="matrix(-1, 0, 0, 1, -2952.56, 0)" xlink:href="#Безымянный_градиент_139"/><linearGradient id="Безымянный_градиент_139-11" x1="-3497.23" y1="163.8" x2="-3463.55" y2="163.8" gradientTransform="matrix(-1, 0, 0, 1, -2952.56, 0)" xlink:href="#Безымянный_градиент_139"/><linearGradient id="Безымянный_градиент_139-12" x1="-3488.77" y1="163.8" x2="-3455.09" y2="163.8" gradientTransform="matrix(-1, 0, 0, 1, -2952.56, 0)" xlink:href="#Безымянный_градиент_139"/><linearGradient id="Безымянный_градиент_39" x1="-3455.34" y1="156.79" x2="-3422.77" y2="156.79" gradientTransform="matrix(-1, 0, 0, 1, -2952.56, 0)" gradientUnits="userSpaceOnUse"><stop offset="0" stop-color="#464b8b"/><stop offset="0.28" stop-color="#393c76"/><stop offset="0.74" stop-color="#27275a"/><stop offset="1" stop-color="#201f4f"/></linearGradient><linearGradient id="Безымянный_градиент_39-2" x1="-3341.18" y1="11.47" x2="-3305.01" y2="11.47" gradientTransform="matrix(-1, -0.08, -0.08, 1, -2829.47, -116.69)" xlink:href="#Безымянный_градиент_39"/><linearGradient id="Безымянный_градиент_39-3" x1="-3453.09" y1="142.09" x2="-3431.14" y2="142.09" xlink:href="#Безымянный_градиент_39"/><linearGradient id="Безымянный_градиент_139-13" x1="-3477.75" y1="147.05" x2="-3447.93" y2="147.05" gradientTransform="matrix(-1, 0, 0, 1, -2952.56, 0)" xlink:href="#Безымянный_градиент_139"/><linearGradient id="Безымянный_градиент_38" x1="-3464.32" y1="143.03" x2="-3441.06" y2="143.03" gradientTransform="matrix(-1, 0, 0, 1, -2952.56, 0)" gradientUnits="userSpaceOnUse"><stop offset="0" stop-color="#201f4f"/><stop offset="0.12" stop-color="#252558"/><stop offset="0.7" stop-color="#3d417d"/><stop offset="1" stop-color="#464b8b"/></linearGradient><linearGradient id="Безымянный_градиент_37" x1="-3489.75" y1="156.73" x2="-3439.03" y2="156.73" gradientTransform="matrix(-1, 0, 0, 1, -2952.56, 0)" gradientUnits="userSpaceOnUse"><stop offset="0" stop-color="#201f4f"/><stop offset="0.23" stop-color="#303168"/><stop offset="0.48" stop-color="#3c407b"/><stop offset="0.74" stop-color="#444887"/><stop offset="1" stop-color="#464b8b"/></linearGradient></defs><title>1</title><g id="Слой_3" data-name="Слой 3"><path class="cls-1" d="M605.53,353.08c-48-98.2-185.42-242-363.94-242.4C55.3,110.29,37.28,295.05,137.69,346.4s-46.4,115.38,58.55,179.69c106.23,65.1,333.24,59,389.12,8.35S626.29,395.5,605.53,353.08Z"/><rect class="cls-2" x="52.05" y="110.68" width="377.88" height="251.17" rx="13.5" ry="13.5"/><rect class="cls-3" x="62.8" y="121.45" width="356.39" height="229.62" rx="8.06" ry="8.06"/><rect class="cls-4" x="110.61" y="145.34" width="169.57" height="90.35" rx="8.42" ry="8.42"/><rect class="cls-4" x="110.61" y="259.79" width="169.57" height="24.61" rx="12.3" ry="12.3"/><rect class="cls-4" x="110.61" y="295.13" width="169.57" height="24.61" rx="12.3" ry="12.3"/><path class="cls-4" d="M343.59,137h-.21a45,45,0,0,0-45,44.77h45.26Z"/><path class="cls-4" d="M305.76,190.43c0,.1,0,.19,0,.29a45.05,45.05,0,0,0,45.05,45.05H351V190.43Z"/><path class="cls-4" d="M351,145.67v44.76h44.83A45,45,0,0,0,351,145.67Z"/><path class="cls-4" d="M351,190.43v45.33a45,45,0,0,0,44.84-45c0-.1,0-.19,0-.29Z"/><line class="cls-5" x1="305.75" y1="270.19" x2="400.56" y2="270.19"/><line class="cls-6" x1="305.75" y1="307.43" x2="400.56" y2="307.43"/><path class="cls-7" d="M171.59,434.87c-1.67,1.11-3.32,2.1-4.93,3-13.3,7.41-24.63,7.91-33.4,5.89a42.16,42.16,0,0,1-16.64-8,50,50,0,0,0-6.63-4S103.57,376,103.57,356c0-14.49,6.13-30,8.24-34.88,10.29,3,36,8.74,59-1.14C191.18,357.42,178.62,406.87,171.59,434.87Z"/><path class="cls-8" d="M146.79,483.64h0c2.45-13.88-19.21-35.29-13.53-39.88a42.16,42.16,0,0,1-16.64-8c-.95,8.65-2,23.58-.32,36.48,0-.07,12.1,47.68,14.89,48.74,6.49,18.12,14,33.94,14,33.94l9.92-2.76S150.76,512.08,146.79,483.64Z"/><path class="cls-9" d="M166.66,437.86c0,15.88-16.47,19.35-35.93,81.76h0c-5,16-10.81,29.46-10.81,29.46l-9.93-3.3s0-.48.07-1.37h0c1.78-33.17-1.86-80.38,23.19-100.65C142,445.77,153.36,445.27,166.66,437.86Z"/><path class="cls-10" d="M410.43,240.11l-34.92-4.53-12.15-12.77a5.25,5.25,0,0,0-3.21-1.81c-3.47-.53-11.37-1-11.69-1.08s-5.34-.57-8.56-.88a.8.8,0,0,0-.54,1.44c2,1.48,5.27,3.37,8.17,3.19a11.65,11.65,0,0,1,8.13,2.52c.24.28,4.3,3.59,2.94,4.25s-5.51-2.73-6-2.78-5.54-3.19-6.53-.92,9.66,7,11.55,8.53,3.09,5.25,5.24,6.65,36.79,10.86,36.79,10.86Z"/><path class="cls-11" d="M380.65,250.87l72.08,18.63s57.69-24.34,67.12-32.8-23.16-20.39-23.16-20.39l-48.75,34.37-67.56-19.74Z"/><path class="cls-12" d="M559.83,573.67c-.93,1.83-17.76-2.71-17.76-2.71l.39-1.69,4.83-21.11A86.79,86.79,0,0,0,546,529.62c5,2.68,15.86.74,15.86.74s-1,7.12.15,9.42a7.31,7.31,0,0,1,.53,1.6,33.07,33.07,0,0,1,.13,11.14c-.44,2.38-1.07,9.45-1.71,14.81h0A33.6,33.6,0,0,1,559.83,573.67Z"/><path class="cls-13" d="M561.21,566.32h0c-.11.37-.2.7-.28,1,.63-5.36,1.26-12.43,1.71-14.81a33.07,33.07,0,0,0-.13-11.14,8.65,8.65,0,0,1,2.38,6.35C564.75,551.43,562.52,561.54,561.21,566.32Z"/><path class="cls-13" d="M561.31,576.9c-1.59,4.74-8.75,9.23-14.68,8.38-5.5-.79-9.53-8.72-4.17-16l-.39,1.69s16.83,4.53,17.76,2.71a33.6,33.6,0,0,0,1.09-6.32h0c.08-.31.79-6.09.89-6.46C562.38,564.32,562.2,574.25,561.31,576.9Z"/><path class="cls-14" d="M483.37,567.87c0,1.4,7.46,5,9.39,5.59s5.69-2,5.53-7.15,9-25.78,9.48-27c.34-.91-.48-1.91-1-2.37-.17-.17-.29-.27-.29-.27l1.24-6.22-16.92-3.57s-1.1,9.79-1.72,12.58-.47,7.61-1.4,12.55c-.85,4.47-3.74,12.73-4.27,15.29A3.16,3.16,0,0,0,483.37,567.87Z"/><path class="cls-13" d="M475.14,581.54c2.49,1.71,13.82-.93,19.27-2.18s5.74-10.25,6.06-13.66c.14-1.58,2-5,4.24-8.64h0c1.44-2.35,3-4.78,4.42-6.85h0c.56-.86,1.09-1.65,1.56-2.36a4.89,4.89,0,0,0,.65-3.93c-1-4-2.92-6-4.53-7,.47.46,1.3,1.45,1,2.37-.47,1.25-9.63,21.9-9.48,27s-3.61,7.77-5.53,7.15-9.39-4.19-9.39-5.59a3.16,3.16,0,0,1,.08-.6C479.79,571.31,473.13,580.15,475.14,581.54Z"/><path class="cls-13" d="M504.27,570h2.1l2.76-19.84c-1.39,2.07-3,4.5-4.42,6.85h0Z"/><path class="cls-13" d="M492.17,317.76c-13.44,40.32-11,117.51-11,117.51L489.08,533h21c5.15-59.1-1.59-94.6-1.59-94.6L516,373.56l10.51,66.13L543.89,533h21.42c.63-15.75-3.48-55.13-11.67-96.49,6.3-36.54,5-60.1,2.77-76.36-4.34-31.18-19.35-47.73-19.35-47.73Z"/><path class="cls-15" d="M535.72,349.9l10.88-1.75s.58,10.71,1.33,13.76,7.67,15.89,7.67,15.89-2.14,14.54-2.41,14.85-7.87,13.54-8.51,13.78-1.69.05-1.7-3.05c0-2,2.79-5.23,4.52-8.24a17.1,17.1,0,0,0,1.9-4c.71-3-2.66-10.5-3.56-9.92s-.12,13.72-1.45,13.39c-.45-.11-.81-.61-1.13-1.36a4.24,4.24,0,0,1-.19-.48,20.77,20.77,0,0,1-.73-2.87c-.15-.77-.29-1.58-.42-2.31,0,0,0-.08,0-.13-.13-.75-.28-1.72-.45-2.82-.59-3.19-1.57-7.46-3.79-10.16a8.47,8.47,0,0,1-1.3-9.52C537.54,362.56,535.72,349.9,535.72,349.9Z"/><path class="cls-16" d="M545.84,381.22c.9-.58,4.27,6.9,3.56,9.92a17.1,17.1,0,0,1-1.9,4c-1.94,1.25-5,3.08-6.31,3-2-.07-6.3.7-6.6-.15s2.2-2.74,4.37-2.58c2.73.21,3.15-1.26,3.81-2.23l.49,0c.32.75.68,1.25,1.13,1.36C545.72,394.94,544.94,381.78,545.84,381.22Z"/><path class="cls-17" d="M536.58,389.63c1.68.24,5.76.27,5.76.27a20.77,20.77,0,0,0,.73,2.87s.1.07.19.48c0,0-9,.05-9.34-.54S534.9,389.4,536.58,389.63Z"/><path class="cls-18" d="M541.45,384.64c.17,1.1.33,2.07.45,2.82,0,0,0,.08,0,.13s-6.06.76-6.4.47S535.46,384.64,541.45,384.64Z"/><path class="cls-11" d="M544.15,318.37l-6.42-17.73s14-45.4,10.11-66.17a59.61,59.61,0,0,0-17.46-32.35l-19,4.1a23.58,23.58,0,0,0-16,12.22c-5.81,11.23-14.58,28.5-15.55,32.27-1.47,5.7,7.8,73.52,7.8,73.52l9.79-1.34Z"/><path class="cls-11" d="M551.4,360.44l13-63.52s-9.53-73.57-18.92-82.07-20.06,4.24-20.06,4.24l19.27,79.29-13.13,64.4Z"/><polygon class="cls-19" points="533.15 250.69 541.92 285.25 540.36 291.33 533.15 250.69"/><path class="cls-13" d="M227.38,260.85s-10,21.25-21.58,25.91-35.88-20.66-35.88-20.66-7.86,12.16-6.93,21.25,5.74,26,13.39,35.65c-27.19,19.18-72.69,2.62-72.69,2.62l8.51-18.55L115,290.25l-7-23.52L95.22,288.08l12,12L106,301.56,95,315.31l-1.07,1.33S71.3,301.7,71,292.77s22.83-52.59,27.31-62c3-6.43,11.5-11.81,24.26-14.53a96.49,96.49,0,0,1,20.82-1.91,31.76,31.76,0,0,1,4.66.38c27.84,4.25,50.8,42.87,50.8,42.87l9.63-13.95,3.48,3.17,12.21,11.13Z"/><path class="cls-20" d="M112.19,307.07l-5,12.43A96.24,96.24,0,0,1,95,315.31l11-13.76Z"/><path class="cls-21" d="M236.14,225.86c-1.31,3.36-8.49,22.6-12,32l-12.21-11.13c4.15-5.78,13.58-18.85,13.87-22.27.37-4.35-1.87-2.74-3-6.48s-6-11.58-6.48-14.94.16-4.35,1.58-3.86,4.15,8.35,6.15,7.6,1.82-7.22,1.79-8.35-5-8.78-1.58-11.57a1.42,1.42,0,0,1,2.18.61c1.1,2.71,2.78,7.34,2.78,7.34s.56-.87,2.42.38.24,1.63,2.85,3.13,2,2,2.51,5.84S237.88,221.38,236.14,225.86Z"/><path class="cls-22" d="M169.91,162.33c6.67,14.64-2.59,28.63-6.52,31-6,3.68-10.07,3.25-13,8.53-1.92,3.45-.76,8,.6,13.31a37.38,37.38,0,0,0-5.48-.45A113.55,113.55,0,0,0,121,217L123.8,201c1.08.18,5,.86,5.89.9,5.56.3,15.53-1.17,14.79-7s4.15-4.68,7.87-8.79,4.3-6.15,2-11.72-2.64-5.57.29-8.21a26.17,26.17,0,0,0,5-6.74c1.76,3.82,2.64,9.09,5.57,7.91S167.95,162.09,169.91,162.33Z"/><path class="cls-23" d="M179.22,153.21c-3.52,4.4-2.64,3.82-4.11,6.15s-3.23,3.23-5.19,3h0c-2-.24-1.84,3.77-4.76,4.94s-3.82-4.1-5.57-7.91a26.17,26.17,0,0,1-5,6.74c-2.93,2.64-2.64,2.64-.29,8.21s1.76,7.61-2,11.72-8.6,2.93-7.87,8.79-9.23,7.33-14.79,7a25.85,25.85,0,0,1-3-.35c-5.49-.9-12.52-3.11-15.46-2.86-3.52.29-10-3.23-11.72-7.92s-6.15-5.27-8.79-7.32-1.76-5.86-.59-12.31-3.52-5.27-7-7.33S84,158.19,87.19,152s-4.11-5-4.11-10,4.4-5,7.91-6.15,2-8.2,5.27-13.78,11.43-.29,11.14-6.74,1.76-5.56,6.15-7,2.82.06,7.45-5.17c5.8-6.55,11.56,1.82,20.65,1.53s6.78-1.33,12.05.42,7.92,10,9.68,12.9,9.08,2.93,10.55,5.27.88,9.08,3.23,12,5.27,3.53,2,6.45S182.73,148.81,179.22,153.21Z"/><path class="cls-13" d="M176.22,585.12l-.05,0c-1.58-.87-12.5-6.9-17.12-10.36s-11-3.4-14.39-.85a5.91,5.91,0,0,0-.93.85c-1.58-6.87-.66-14.74.23-19.58l12.27-3.42a125.56,125.56,0,0,0,5.18,14C165,573.87,175,583.87,176.22,585.12Z"/><path class="cls-13" d="M176.17,585.16c-10.35,6.83-20.39-.81-20.39-.81l.95,4.19h-7.86s-.77-2-1.39-3.28c-1.58-3.15-3.36-7.37-3.76-10.58,3.9-4,10.82-3.27,15.34.12S174.59,584.28,176.17,585.16Z"/><path class="cls-13" d="M141.25,587.87s-3.37.31-9,.46h0l-1.79,0c-6.72.12-8.34-6.85-11-13.95s-13.29-12.95-18.79-9.1c.15-.87.32-1.59.45-2.13l.05-.22c.15-.58.25-.9.25-.9,1.93-6.5,5.28-14.41,7.62-18.13,0,.88,11.94,5.49,11.94,5.49a49,49,0,0,0,3.59,13.66c1.87,4.73,9.58,20.79,13.2,20.92S141.25,587.87,141.25,587.87Z"/><path class="cls-13" d="M132.2,588.33c-3.94.56-13.19-.17-14.64-.58-1.76-.49-1.48-6.72-4-7.1s-2.11,7.1-2.11,7.1H99.85a77.64,77.64,0,0,0,0-11.45,48.15,48.15,0,0,1,.77-11c5.49-3.84,16.17,2,18.79,9.1s4.24,14.07,11,13.95Z"/><path class="cls-24" d="M508.65,126.66l-6.12-1.26a1.54,1.54,0,0,0-1.69.82l-2.2,4.43a1.54,1.54,0,0,1-1.12.83l-3.42.59a1.54,1.54,0,0,0-1.28,1.62l.27,4.06a1.54,1.54,0,0,1-1.28,1.62l-3.09.53a1.54,1.54,0,0,0-1.28,1.6l.17,3.34a1.54,1.54,0,0,1-.73,1.39l-3.71,2.29a1.54,1.54,0,0,0-.35,2.33l2.38,2.71a1.54,1.54,0,0,1-.27,2.28l-4.23,3a1.54,1.54,0,0,0-.44,2l1.83,3.12a1.54,1.54,0,0,1-.15,1.77l-2.2,2.62a1.54,1.54,0,0,0,.31,2.27l2.32,1.57a1.54,1.54,0,0,1,.38,2.18l-3.62,5a1.54,1.54,0,0,0,.1,1.94l2.22,2.46a1.54,1.54,0,0,1,.07,2l-3.41,4.33a1.54,1.54,0,0,0,0,1.94l3.24,3.91a1.54,1.54,0,0,1,.07,1.88l-1.8,2.52a1.54,1.54,0,0,0-.09,1.66l1.58,2.79c.11.2-.16.68-.19,1.31a9,9,0,0,0,0,1.22"/><path class="cls-25" d="M515.79,126.66l-6.12-1.26a1.54,1.54,0,0,0-1.69.82l-2.2,4.43a1.54,1.54,0,0,1-1.12.83l-3.42.59A1.54,1.54,0,0,0,500,133.7l.27,4.06a1.54,1.54,0,0,1-1.28,1.62l-3.09.53a1.54,1.54,0,0,0-1.28,1.6l.17,3.34a1.54,1.54,0,0,1-.73,1.39l-3.71,2.29a1.54,1.54,0,0,0-.35,2.33l2.38,2.71a1.54,1.54,0,0,1-.27,2.28l-4.23,3a1.54,1.54,0,0,0-.44,2l1.83,3.12a1.54,1.54,0,0,1-.15,1.77l-2.2,2.62a1.54,1.54,0,0,0,.31,2.27l2.32,1.57a1.54,1.54,0,0,1,.38,2.18l-3.62,5a1.54,1.54,0,0,0,.1,1.94l2.22,2.46a1.54,1.54,0,0,1,.07,2l-3.41,4.33a1.54,1.54,0,0,0,0,1.94L488.5,196a1.54,1.54,0,0,1,.07,1.88l-1.8,2.52a1.54,1.54,0,0,0-.09,1.66l1.58,2.79c.11.2-.16.68-.19,1.31a9,9,0,0,0,0,1.22"/><path class="cls-26" d="M499.84,124.1l-6.12-1.26a1.54,1.54,0,0,0-1.69.82l-2.2,4.43a1.54,1.54,0,0,1-1.12.83l-3.42.59a1.54,1.54,0,0,0-1.28,1.62l.27,4.06a1.54,1.54,0,0,1-1.28,1.62l-3.09.53a1.54,1.54,0,0,0-1.28,1.6l.17,3.34a1.54,1.54,0,0,1-.73,1.39L474.35,146a1.54,1.54,0,0,0-.35,2.33l2.38,2.71a1.54,1.54,0,0,1-.27,2.28l-4.23,3a1.54,1.54,0,0,0-.44,2l1.83,3.12a1.54,1.54,0,0,1-.15,1.77l-2.2,2.62a1.54,1.54,0,0,0,.31,2.27l2.32,1.57a1.54,1.54,0,0,1,.38,2.18l-3.62,5a1.54,1.54,0,0,0,.1,1.94l2.22,2.46a1.54,1.54,0,0,1,.07,2l-3.41,4.33a1.54,1.54,0,0,0,0,1.94l3.24,3.91a1.54,1.54,0,0,1,.07,1.88l-1.8,2.52a1.54,1.54,0,0,0-.09,1.66l1.58,2.79c.11.2-.16.68-.19,1.31a9,9,0,0,0,0,1.22"/><path class="cls-27" d="M486.61,140.53c20.7-18.11,51.53-7.43,58.79,15.3,16.46,51.52-43,52.39-49.81,54.91C471.58,194.31,468.91,157.43,486.61,140.53Z"/><path class="cls-28" d="M480.32,149.88c.11,1.25.27,2.49.44,3.71,1.66-6.35,12.49-13.54,24.76-12.42,0,0,0,1.48,2.31,1.9s3.33-2.47,3.85,0,.51,5.8,3.33,5.8,4.62,1.79,4.87,3.59-4.51,8.25-2.12,9.83c2.73,1.81,4.71,8.59,4.71,8.59s2.13-15.74,10.61-6.52c.6,1.69,1.1,3.4,1.53,5.1a5.93,5.93,0,0,0-1.6-5.62,5.13,5.13,0,0,0-1.29-.85A43.93,43.93,0,0,0,533.77,150c0-2.42,5.47-11.32,4.82-13.81-3.36-12.95-25.92-20.74-36.84-20S479.28,137.75,480.32,149.88Z"/><path class="cls-29" d="M527.87,185.68a37.88,37.88,0,0,1-27.2,16.4l.08-1.46.09-1.79c7.8-2.3,17.13-7.7,28-19l-.23.27a38.2,38.2,0,0,0-.67,4.84C527.92,185.17,527.89,185.42,527.87,185.68Z"/><path class="cls-30" d="M479.72,181.66c2.44,10.62,12.28,15.45,18.66,16.8.61.12,1.19.22,1.73.28.26,0,.5.07.73.09l-.09,1.79-.16,2.29-.14,2-.61,33.16c-.57,2.39,25.38-26.53,25.56-29.74,0,0,.94-4.89,2.23-19.76.08-.93.16-1.9.24-2.91,0-.26.05-.51.07-.75,0-.5.11-1.1.18-1.71a22.38,22.38,0,0,1,.48-3.14,2.25,2.25,0,0,0,.23-.27c3.56-4,5.35-7.55,5.78-10.36-.24-1-.52-2-.82-2.94a7.55,7.55,0,0,0-3.16-4.27c-6.45-4-8.16,8.63-8.16,8.63s-21.81-4.51-27.2-30a10.72,10.72,0,0,0-8.32,1.83c-2.56,1.79-5,5.07-6.2,10.87h0c.49,3.47,1.09,6.79.8,9.92C481.19,167.78,478,174.26,479.72,181.66Z"/><path class="cls-31" d="M487,142.72c3.35,8.71,8.67,16.83,19.2,22.82,11.64,6.62,16.31,5.33,16.31,5.33s-21.81-4.51-27.2-30A10.72,10.72,0,0,0,487,142.72Z"/><path class="cls-32" d="M500.74,200.62s18-2.1,26.88-12c.08-.93.16-1.9.24-2.91,0-.26.05-.51.07-.75,0-.5.11-1.1.18-1.71-10.9,8.81-20.18,13.4-28,15.52.26,0,.5.07.73.09Z"/><path class="cls-33" d="M527.39,167.83s2.53-3,4-.46-1.4,6.43-1.4,6.43Z"/><path class="cls-34" d="M512.74,118.77l5.82-2.28a1.54,1.54,0,0,1,1.81.53l2.92,4a1.54,1.54,0,0,0,1.24.63H528a1.54,1.54,0,0,1,1.53,1.38l.43,4a1.54,1.54,0,0,0,1.53,1.38h3.14a1.54,1.54,0,0,1,1.53,1.36l.4,3.32a1.54,1.54,0,0,0,1,1.24l4,1.63a1.54,1.54,0,0,1,.74,2.24l-1.88,3.08a1.54,1.54,0,0,0,.65,2.2l4.68,2.24a1.54,1.54,0,0,1,.78,1.93l-1.27,3.39a1.54,1.54,0,0,0,.45,1.72l2.61,2.2a1.54,1.54,0,0,1,.08,2.29l-2,1.94a1.54,1.54,0,0,0,0,2.21l4.42,4.32a1.54,1.54,0,0,1,.23,1.93l-1.77,2.8a1.54,1.54,0,0,0,.27,2l4.1,3.69a1.54,1.54,0,0,1,.31,1.92l-2.53,4.4a1.54,1.54,0,0,0,.25,1.87l2.2,2.18a1.54,1.54,0,0,1,.37,1.62l-1.08,3a2.22,2.22,0,0,0,.41,1.26,3.75,3.75,0,0,1-1.14,4.83l-.18,3.66"/><path class="cls-35" d="M506.6,125.89l5.82-2.28a1.54,1.54,0,0,1,1.81.53l2.92,4a1.54,1.54,0,0,0,1.24.63h3.47a1.54,1.54,0,0,1,1.53,1.38l.43,4a1.54,1.54,0,0,0,1.53,1.38h3.14a1.54,1.54,0,0,1,1.53,1.36l.4,3.32a1.54,1.54,0,0,0,1,1.24l4,1.63a1.54,1.54,0,0,1,.74,2.24l-1.88,3.08a1.54,1.54,0,0,0,.65,2.2l4.68,2.24a1.54,1.54,0,0,1,.78,1.93l-1.27,3.39a1.54,1.54,0,0,0,.45,1.72l2.61,2.2a1.54,1.54,0,0,1,.08,2.29l-2,1.94a1.54,1.54,0,0,0,0,2.21l4.42,4.32a1.54,1.54,0,0,1,.23,1.93l-1.77,2.8a1.54,1.54,0,0,0,.27,2l4.1,3.69a1.54,1.54,0,0,1,.31,1.92l-2.53,4.4a1.54,1.54,0,0,0,.25,1.87l2.2,2.18a1.54,1.54,0,0,1,.37,1.62l-1.08,3a2.22,2.22,0,0,0,.41,1.26,3.75,3.75,0,0,1-1.14,4.83l-.18,3.66"/><path class="cls-36" d="M520.29,123.31,526.1,121a1.54,1.54,0,0,1,1.81.53l2.92,4a1.54,1.54,0,0,0,1.24.63h3.47a1.54,1.54,0,0,1,1.53,1.38l.43,4A1.54,1.54,0,0,0,539,133h3.14a1.54,1.54,0,0,1,1.53,1.36l.4,3.32a1.54,1.54,0,0,0,1,1.24l4,1.63a1.54,1.54,0,0,1,.74,2.24L548,145.86a1.54,1.54,0,0,0,.65,2.2l4.68,2.24a1.54,1.54,0,0,1,.78,1.93l-1.27,3.39a1.54,1.54,0,0,0,.45,1.72l2.61,2.2a1.54,1.54,0,0,1,.08,2.29l-2,1.94a1.54,1.54,0,0,0,0,2.21l4.42,4.32a1.54,1.54,0,0,1,.23,1.93L556.8,175a1.54,1.54,0,0,0,.27,2l4.1,3.69a1.54,1.54,0,0,1,.31,1.92l-2.53,4.4a1.54,1.54,0,0,0,.25,1.87l2.2,2.18a1.54,1.54,0,0,1,.37,1.62l-1.08,3a2.22,2.22,0,0,0,.41,1.26c.59,1.1-2.63,2.61-3.15,3.67"/><path class="cls-37" d="M519.37,119.17l5.6-2.77a1.54,1.54,0,0,1,1.85.37l3.25,3.73a1.54,1.54,0,0,0,1.29.52l3.46-.29a1.54,1.54,0,0,1,1.64,1.25l.77,4a1.54,1.54,0,0,0,1.64,1.25L542,127a1.54,1.54,0,0,1,1.64,1.22l.68,3.28a1.54,1.54,0,0,0,1.06,1.16l4.17,1.28a1.54,1.54,0,0,1,.93,2.16l-1.62,3.22a1.54,1.54,0,0,0,.83,2.13l4.85,1.83a1.54,1.54,0,0,1,.94,1.86l-1,3.48a1.54,1.54,0,0,0,.59,1.68l2.79,2a1.54,1.54,0,0,1,.27,2.28l-1.85,2.1a1.54,1.54,0,0,0,.18,2.21l4.77,3.93a1.54,1.54,0,0,1,.39,1.9l-1.52,2.94a1.54,1.54,0,0,0,.44,1.94l4.4,3.33a1.54,1.54,0,0,1,.47,1.88l-2.15,4.6a1.54,1.54,0,0,0,.41,1.84l2.38,2a1.54,1.54,0,0,1,.5,1.58l-.82,3.09c-.06.22.32.61.51,1.22.75,2.42,2.1,3.74,1,3.92"/><path class="cls-38" d="M544.14,197l-1-7.69c0-.22,3.5.8,3.7.7l3-4.46a.53.53,0,0,0,.09-.89l-7.29-5.75a.53.53,0,0,1-.1-.72l2.18-3.06a.53.53,0,0,0,0-.62l-3.91-5.42a.53.53,0,0,1-.07-.49l1.93-5.29a.53.53,0,0,0-.15-.58L539.25,160a.53.53,0,0,1-.14-.6l2.23-5.4a.53.53,0,0,0-.12-.58l-3.27-3.15a.53.53,0,0,1,0-.74l1.54-1.62a.53.53,0,0,0-.05-.78l-4-3.2a.53.53,0,0,1-.12-.69l1.8-3a.53.53,0,0,0-.45-.8H533a.53.53,0,0,1-.52-.45l-.64-4.09a.53.53,0,0,0-.52-.45h-4.57a.53.53,0,0,1-.52-.63l.65-3.4a.53.53,0,0,0-.52-.63h-4.74a.53.53,0,0,1-.53-.53v-3.49a.53.53,0,0,0-.53-.53h-3.73a.53.53,0,0,1-.53-.53v-3.9a.53.53,0,0,0-.53-.53h-6.67"/><path class="cls-39" d="M504.72,116.12l2.45,2.74a1.06,1.06,0,0,1,.26.84l-.38,2.85a1.06,1.06,0,0,0,.83,1.17l.47.1a1.06,1.06,0,0,1,.51,1.79L506,128.34a1.06,1.06,0,0,0,.44,1.77l1.26.36a1.06,1.06,0,0,1,.6,1.57l-1.48,2.37a1.06,1.06,0,0,0,.53,1.55l.71.26a1.06,1.06,0,0,1,.63,1.34l-1.49,4.27a1.06,1.06,0,0,0,.61,1.33l1.39.54a1.06,1.06,0,0,1,.58,1.42l-1.64,3.58a1.06,1.06,0,0,0,1,1.49h2.92a1,1,0,0,1,.67.24c1,.87,4.4,3.83,2.9,4.59s1.8,1,3.35,1.09a1.05,1.05,0,0,1,1,.84l1,4.8a1.06,1.06,0,0,0,.47.68l4.81,3.3"/><path class="cls-40" d="M513.68,125.53l9.7,9.89a1.72,1.72,0,0,1,.15,2.1h0a1.72,1.72,0,0,0,.62,2.47l3.17,1.7A1.72,1.72,0,0,1,528,144a5,5,0,0,0-.66,1.76c.1.54,4,4.66,4.37,5.19.25.34-.23,2.34-.62,3.77a1.72,1.72,0,0,0,1,2l1.45.56a1.72,1.72,0,0,1,1.1,1.6v5.48a1.7,1.7,0,0,0,.27.93,20.64,20.64,0,0,0,2.7,3.51c.86.72.34,4,.1,5.23a1.71,1.71,0,0,0,.12,1l1.35,3a1.72,1.72,0,0,1,.13,1l-1.24,7.36a1.72,1.72,0,0,0,.26,1.23l1.71,2.62a1.72,1.72,0,0,1,.22,1.41l-1.66,5.89a1.72,1.72,0,0,0,.45,1.69l2.84,2.79"/><path class="cls-41" d="M505.22,125.53l9.7,9.89a1.72,1.72,0,0,1,.15,2.1h0a1.72,1.72,0,0,0,.62,2.47l3.17,1.7a1.72,1.72,0,0,1,.73,2.28,5,5,0,0,0-.66,1.76c.1.54,4,4.66,4.37,5.19.25.34-.23,2.34-.62,3.77a1.72,1.72,0,0,0,1,2l1.45.56a1.72,1.72,0,0,1,1.1,1.6v5.48a1.7,1.7,0,0,0,.27.93,20.64,20.64,0,0,0,2.7,3.51c.86.72.34,4,.1,5.23a1.71,1.71,0,0,0,.12,1l1.35,3a1.72,1.72,0,0,1,.13,1l-1.24,7.36a1.72,1.72,0,0,0,.26,1.23l1.71,2.62a1.72,1.72,0,0,1,.22,1.41l-1.66,5.89a1.72,1.72,0,0,0,.45,1.69l2.84,2.79"/><path class="cls-42" d="M500.1,118.33l-4.45,2.6a1.92,1.92,0,0,0-1.77,1.17l-.87,2.06a1.92,1.92,0,0,1-1,1h0a1.92,1.92,0,0,0-1.13,1.44l2.68,3.72c-.16.92-4-.27-4.89-.27h-.89a1.91,1.91,0,0,0-1.44.65c-1,1.11-2.87,3.31-2.79,3.68a4.91,4.91,0,0,0,1.06,1.26,1.91,1.91,0,0,1-.13,2.84c-1,.8-2.14,1.62-2.79,1.61-1.25,0-1.92,3.58-1.53,3.77,2.5,1.21-1.92,3.25-2.82,4.68a1.91,1.91,0,0,0-.2,1.61,10.32,10.32,0,0,1,.66,2.74c-.12.28-1.79,3-2.77,4.64a1.91,1.91,0,0,0,.17,2.23l2.34,2.78a1.92,1.92,0,0,1,.22,2.14L472.91,167c-.2.38,2.55,2.26,2.62,2.68l.87,5a1.92,1.92,0,0,1-.09,1l-1.73,4.8a1.92,1.92,0,0,0,.11,1.54l1.44,2.73a1.92,1.92,0,0,0,.35.47l1.24,1.22a1.92,1.92,0,0,1-.26,3l-.14,5.85"/><path class="cls-43" d="M500.34,124.62,496.88,122a2.2,2.2,0,0,1-.24-.21c-.39-.4-1.77-1.76-2.15-1.33s-1.58.11-2.66-.1a2.2,2.2,0,0,0-2.28,1l-.78,1.22a2.2,2.2,0,0,1-.69.69L485,125.16a2.2,2.2,0,0,0-.92,1.17l-.94,2.81a2.2,2.2,0,0,1-.79,1.09l-2,1.48a2.2,2.2,0,0,0-.44.42l-1.36,1.73a2.2,2.2,0,0,0-.47,1.28L478,137a2.2,2.2,0,0,1-1.81,2.09h0a2.2,2.2,0,0,0-1.72,2.81l.25.84a2.2,2.2,0,0,1-.8,2.41l-2.39,1.77a2.2,2.2,0,0,0-.78,2.48l.15.45a2.2,2.2,0,0,1-.67,2.39l-2.43,2a2.2,2.2,0,0,0-.33,3l1.47,1.91a2.2,2.2,0,0,1-.39,3.07l-.23.18a2.2,2.2,0,0,0-.78,2.27l.66,2.65a2.2,2.2,0,0,1-.91,2.36l-.49.33a2.2,2.2,0,0,0-.59,3.08l2.3,3.35a2.2,2.2,0,0,1,.26,2l-1.18,3.37a2.2,2.2,0,0,0-.07.26l-.84,3.83"/><path class="cls-44" d="M497.85,135.7l-1.59-1.3a1.53,1.53,0,0,0-2,.07l-1.52,1.43a1.53,1.53,0,0,1-1.8.21h0a1.53,1.53,0,0,0-2.24,1l-.7,2.78a1.88,1.88,0,0,1-1.66,1.09,2.46,2.46,0,0,0-2.06,1.74l-.43,1.45c-.15.49-1.35.8-1.89,1.51a3.11,3.11,0,0,0-.26,3.41l.6,1.08"/><path class="cls-45" d="M503.1,120.3,501.19,123a1.64,1.64,0,0,0-.19,1.57l.38.94a1.64,1.64,0,0,1-.47,1.88l-1.86,1.54a1.64,1.64,0,0,0,.31,2.73l.42.21a1.64,1.64,0,0,1,.46,2.59l-1,1.06a1.64,1.64,0,0,0,.15,2.39l.25.21a1.64,1.64,0,0,1,.44,2,32.17,32.17,0,0,0-2,4.76c0,.33,1.72,1,3,1.46a1.64,1.64,0,0,1,1,2c-.51,1.72-1.15,4.36-.35,4.6a27.85,27.85,0,0,0,5.16.1,1.64,1.64,0,0,1,1.66,2l-.62,2.68a1.64,1.64,0,0,0,1.6,2h3.38a1.64,1.64,0,0,1,1.64,1.8l-.34,3.49a1.64,1.64,0,0,0,1.19,1.74l4.11,1.16a1.64,1.64,0,0,1,1.09,1l1.89,4.91"/><path class="cls-46" d="M496.23,120.3,494.32,123a1.64,1.64,0,0,0-.19,1.57l.38.94a1.64,1.64,0,0,1-.47,1.88l-1.86,1.54a1.64,1.64,0,0,0,.31,2.73l.42.21a1.64,1.64,0,0,1,.46,2.59l-1,1.06a1.64,1.64,0,0,0,.15,2.39l.25.21a1.64,1.64,0,0,1,.44,2,32.17,32.17,0,0,0-2,4.76c0,.33,1.72,1,3,1.46a1.64,1.64,0,0,1,1,2c-.51,1.72-1.15,4.36-.35,4.6a27.85,27.85,0,0,0,5.16.1,1.64,1.64,0,0,1,1.66,2l-.62,2.68a1.64,1.64,0,0,0,1.6,2l3,1.35c1,0,3.44,3.74,3.35,4.7"/><path class="cls-47" d="M489.16,120.92l6.72-3.31a9.36,9.36,0,0,1,5.88-2.72l1.91,1.23c1.16-.24,2.93-1.15,3.24,0,.17.63,1.28-1.16,1.78-1.18h.12a2.24,2.24,0,0,1,2.28,2.56l-.56,3.84a2.24,2.24,0,0,0,1.26,2.35l.66.31a2.24,2.24,0,0,1,1.23,2.55l-.35,1.44a2.24,2.24,0,0,0,.84,2.32l2.2,1.63a2.24,2.24,0,0,1,.71,2.72l-.88,1.95c-.34.76-1.08,3.42-.56,4.07l5.95,4.65a2.24,2.24,0,0,1,.25,2.39l-1.07,2.15a2.23,2.23,0,0,0,.22,2.35c1.1,1.45,3,3.78,3.47,3.61s1.11,1.32,1.42,2.2a2.23,2.23,0,0,0,.73,1l3.68,2.91a2.24,2.24,0,0,1,.58.69l1.88,3.47a2.24,2.24,0,0,1,.2.5l1.18,4.52a2.24,2.24,0,0,1,.06.35l.33,3.41a2.24,2.24,0,0,1-.75,1.89l-1.62,1.43a2.24,2.24,0,0,0,.53,3.7h0a2.24,2.24,0,0,1,.7,3.53l-1.21,1.32a2.24,2.24,0,0,0,.07,3.09l1.24,1.24a2.24,2.24,0,0,1,.63,1.93l-.87,5.53"/></g></svg>